<?xml version="1.0" encoding="UTF-8" standalone="no"?>
<!-- Created with Inkscape (http://www.inkscape.org/) -->

<svg
   width="75.963577mm"
   height="62.95985mm"
   viewBox="0 0 75.963577 62.95985"
   version="1.1"
   id="svg5"
   xml:space="preserve"
   inkscape:version="1.2.2 (b0a8486541, 2022-12-01)"
   sodipodi:docname="staticart_logo.svg"
   xmlns:inkscape="http://www.inkscape.org/namespaces/inkscape"
   xmlns:sodipodi="http://sodipodi.sourceforge.net/DTD/sodipodi-0.dtd"
   xmlns="http://www.w3.org/2000/svg"
   xmlns:svg="http://www.w3.org/2000/svg"><sodipodi:namedview
     id="namedview7"
     pagecolor="#ffffff"
     bordercolor="#000000"
     borderopacity="0.25"
     inkscape:showpageshadow="2"
     inkscape:pageopacity="0.0"
     inkscape:pagecheckerboard="0"
     inkscape:deskcolor="#d1d1d1"
     inkscape:document-units="mm"
     showgrid="false"
     inkscape:zoom="1.829812"
     inkscape:cx="163.40476"
     inkscape:cy="210.13088"
     inkscape:window-width="1434"
     inkscape:window-height="1229"
     inkscape:window-x="1659"
     inkscape:window-y="511"
     inkscape:window-maximized="0"
     inkscape:current-layer="layer1" /><defs
     id="defs2" /><g
     inkscape:label="Layer 1"
     inkscape:groupmode="layer"
     id="layer1"
     transform="translate(-57.458412,-43.478262)"><g
       aria-label="Stati"
       transform="scale(0.98034486,1.0200492)"
       id="text287"
       style="font-size:16.5165px;font-family:genesa;-inkscape-font-specification:genesa;fill:#5a25c3;stroke-width:2.41895;stroke-linejoin:round;stroke-miterlimit:2.5"><path
         d="m 63.31761,104.34606 c 3.3033,0 4.905401,-1.65165 4.905401,-3.58408 0,-4.244746 -6.722216,-2.774777 -6.722216,-4.905406 0,-0.726726 0.611111,-1.32132 2.196695,-1.32132 1.024023,0 2.130628,0.297297 3.204201,0.908408 l 0.825825,-2.03153 c -1.073573,-0.677176 -2.560058,-1.024023 -4.01351,-1.024023 -3.286784,0 -4.872368,1.635134 -4.872368,3.600597 0,4.294294 6.722216,2.807806 6.722216,4.971464 0,0.71021 -0.644143,1.23874 -2.229727,1.23874 -1.387386,0 -2.840839,-0.49549 -3.815312,-1.2057 l -0.908408,2.01501 c 1.024023,0.79279 2.873871,1.33784 4.707203,1.33784 z"
         id="path20236" /><path
         d="m 74.548839,101.90161 c -0.297297,0.21472 -0.677177,0.33033 -1.057056,0.33033 -0.693693,0 -1.090089,-0.41291 -1.090089,-1.17267 v -3.617112 h 2.196694 v -1.98198 H 72.401694 V 93.296517 H 69.82512 v 7.795793 c 0,2.11411 1.205704,3.18768 3.319816,3.18768 0.776276,0 1.552551,-0.18168 2.081079,-0.56156 z"
         id="path20238" /><path
         d="m 82.84013,96.203421 c -0.644143,-0.726726 -1.569067,-1.073573 -2.659156,-1.073573 -2.510508,0 -4.442939,1.783782 -4.442939,4.575071 0,2.791291 1.932431,4.575071 4.442939,4.575071 1.189188,0 2.130628,-0.37988 2.774772,-1.15616 v 1.02403 h 2.460958 V 95.26198 H 82.84013 Z m -2.213211,5.962459 c -1.288287,0 -2.279277,-0.92493 -2.279277,-2.460961 0,-1.536035 0.99099,-2.460959 2.279277,-2.460959 1.271771,0 2.262761,0.924924 2.262761,2.460959 0,1.536031 -0.99099,2.460961 -2.262761,2.460961 z"
         id="path20240" /><path
         d="m 92.469257,101.90161 c -0.297297,0.21472 -0.677176,0.33033 -1.057056,0.33033 -0.693693,0 -1.090089,-0.41291 -1.090089,-1.17267 v -3.617112 h 2.196695 v -1.98198 h -2.196695 v -2.163661 h -2.576574 v 7.795793 c 0,2.11411 1.205705,3.18768 3.319817,3.18768 0.776275,0 1.552551,-0.18168 2.081079,-0.56156 z"
         id="path20242" /><path
         d="m 95.888184,94.023243 c 0.957957,0 1.602101,-0.627627 1.602101,-1.486485 0,-0.792792 -0.644144,-1.387386 -1.602101,-1.387386 -0.957957,0 -1.6021,0.627627 -1.6021,1.436935 0,0.809309 0.644143,1.436936 1.6021,1.436936 z m 1.288287,10.124617 v -8.88588 h -2.576574 v 8.88588 z"
         id="path20244" /></g><g
       id="g9830"
       style="stroke:#5a25c3;stroke-opacity:1"><path
         id="path339"
         style="color:#000000;fill:#5a25c3;stroke:none;stroke-miterlimit:2.5;-inkscape-stroke:none"
         d="M 60.627211 43.478262 L 60.627211 47.843887 L 69.648366 47.843887 L 83.623223 80.322008 L 111.23808 80.322008 L 111.23808 75.9569 L 86.495916 75.9569 L 78.318121 56.947207 L 111.12904 56.947207 L 111.12904 52.382628 L 76.354416 52.382628 L 72.523642 43.478262 L 60.627211 43.478262 z " /></g><g
       aria-label="&gt;"
       transform="scale(0.84004382,1.1904141)"
       id="text1172"
       style="font-size:55.8435px;font-family:'Montserrat Alternates';-inkscape-font-specification:'Montserrat Alternates';fill:#f19c16;stroke-width:8.17866;stroke-linejoin:round;stroke-miterlimit:2.5"><path
         d="m 134.53549,47.684212 20.55041,8.097308 -20.55041,8.097307 v 3.462297 l 24.29193,-9.716769 v -3.685671 l -24.29193,-9.772612 z"
         id="path19488" /></g><ellipse
       style="fill:#5c25c3;fill-opacity:1;stroke:none;stroke-width:4.36499;stroke-linejoin:miter;stroke-miterlimit:2.5;stroke-dasharray:none;stroke-opacity:1"
       id="path1328"
       cx="88.759438"
       cy="84.907707"
       rx="2.6940341"
       ry="2.7825747" /><ellipse
       style="fill:#5c25c3;fill-opacity:1;stroke:none;stroke-width:4.36499;stroke-linejoin:miter;stroke-miterlimit:2.5;stroke-dasharray:none;stroke-opacity:1"
       id="ellipse1382"
       cx="106.2327"
       cy="84.907707"
       rx="2.6940341"
       ry="2.7825747" /><g
       aria-label="Cart"
       transform="scale(0.98034486,1.0200492)"
       id="text16504"
       style="font-size:16.5165px;font-family:genesa;-inkscape-font-specification:genesa;fill:#f2960c;stroke-width:2.41895;stroke-linejoin:round;stroke-miterlimit:2.5"><path
         d="m 104.99524,104.34606 c 2.01501,0 3.68318,-0.72673 4.77326,-2.06457 l -1.71771,-1.58558 c -0.77628,0.90841 -1.75075,1.37087 -2.90691,1.37087 -2.16366,0 -3.69969,-1.51952 -3.69969,-3.699697 0,-2.180179 1.53603,-3.699697 3.69969,-3.699697 1.15616,0 2.13063,0.462462 2.90691,1.354353 l 1.71771,-1.585584 c -1.09008,-1.32132 -2.75825,-2.048046 -4.75675,-2.048046 -3.60059,0 -6.276267,2.493992 -6.276267,5.978974 0,3.484977 2.675677,5.978977 6.259757,5.978977 z"
         style="-inkscape-font-specification:'Montserrat Alternates Bold'"
         id="path20219" /><path
         d="m 117.51476,96.203421 c -0.64415,-0.726726 -1.56907,-1.073573 -2.65916,-1.073573 -2.51051,0 -4.44294,1.783782 -4.44294,4.575071 0,2.791291 1.93243,4.575071 4.44294,4.575071 1.18919,0 2.13063,-0.37988 2.77477,-1.15616 v 1.02403 h 2.46096 v -8.88588 h -2.57657 z m -2.21322,5.962459 c -1.28828,0 -2.27927,-0.92493 -2.27927,-2.460961 0,-1.536035 0.99099,-2.460959 2.27927,-2.460959 1.27178,0 2.26277,0.924924 2.26277,2.460959 0,1.536031 -0.99099,2.460961 -2.26277,2.460961 z"
         style="-inkscape-font-specification:'Montserrat Alternates Bold'"
         id="path20221" /><path
         d="m 124.93067,95.26198 h -2.46096 v 8.88588 h 2.57658 v -4.195193 c 0,-1.7012 0.94144,-2.477476 2.36186,-2.477476 0.19819,0 0.36336,0.01652 0.57807,0.03303 v -2.378376 c -1.37087,0 -2.42792,0.445946 -3.05555,1.304804 z"
         style="-inkscape-font-specification:'Montserrat Alternates Bold'"
         id="path20223" /><path
         d="m 134.19643,101.90161 c -0.2973,0.21472 -0.67718,0.33033 -1.05706,0.33033 -0.69369,0 -1.09008,-0.41291 -1.09008,-1.17267 v -3.617112 h 2.19669 v -1.98198 h -2.19669 v -2.163661 h -2.57658 v 7.795793 c 0,2.11411 1.20571,3.18768 3.31982,3.18768 0.77627,0 1.55255,-0.18168 2.08108,-0.56156 z"
         style="-inkscape-font-specification:'Montserrat Alternates Bold'"
         id="path20225" /></g></g></svg>
