<?xml version="1.0" encoding="UTF-8" standalone="no"?>
<!-- Created with Inkscape (http://www.inkscape.org/) -->

<svg
   width="79.594536mm"
   height="64.805954mm"
   viewBox="0 0 79.594536 64.805954"
   version="1.1"
   id="svg23529"
   inkscape:version="1.2.2 (b0a8486541, 2022-12-01)"
   sodipodi:docname="staticart_logo.svg"
   xmlns:inkscape="http://www.inkscape.org/namespaces/inkscape"
   xmlns:sodipodi="http://sodipodi.sourceforge.net/DTD/sodipodi-0.dtd"
   xmlns="http://www.w3.org/2000/svg"
   xmlns:svg="http://www.w3.org/2000/svg">
  <sodipodi:namedview
     id="namedview23531"
     pagecolor="#ffffff"
     bordercolor="#000000"
     borderopacity="0.25"
     inkscape:showpageshadow="2"
     inkscape:pageopacity="0.0"
     inkscape:pagecheckerboard="0"
     inkscape:deskcolor="#d1d1d1"
     inkscape:document-units="mm"
     showgrid="false"
     inkscape:zoom="0.914906"
     inkscape:cx="150.28866"
     inkscape:cy="122.96345"
     inkscape:window-width="1434"
     inkscape:window-height="1229"
     inkscape:window-x="1052"
     inkscape:window-y="701"
     inkscape:window-maximized="0"
     inkscape:current-layer="layer1" />
  <defs
     id="defs23526" />
  <g
     inkscape:label="Layer 1"
     inkscape:groupmode="layer"
     id="layer1"
     transform="translate(-65.323957,-116.09702)">
    <g
       id="g24778">
      <g
         aria-label="Stati"
         transform="matrix(0.98034486,0,0,1.0200492,6.854531,-3.8834456)"
         id="text23394"
         style="font-size:16.5165px;font-family:genesa;-inkscape-font-specification:genesa;fill:#5a25c3;stroke-width:2.41895;stroke-linejoin:round;stroke-miterlimit:2.5">
        <path
           d="m 64.348894,181.15442 c 3.3033,0 4.905401,-1.65165 4.905401,-3.58408 0,-4.24474 -6.722216,-2.77477 -6.722216,-4.9054 0,-0.72673 0.611111,-1.32132 2.196695,-1.32132 1.024023,0 2.130628,0.2973 3.204201,0.90841 L 68.7588,170.2205 c -1.073573,-0.67718 -2.560058,-1.02403 -4.01351,-1.02403 -3.286783,0 -4.872367,1.63514 -4.872367,3.6006 0,4.29429 6.722215,2.80781 6.722215,4.97147 0,0.71021 -0.644143,1.23874 -2.229727,1.23874 -1.387386,0 -2.840838,-0.4955 -3.815312,-1.20571 l -0.908407,2.01501 c 1.024023,0.7928 2.873871,1.33784 4.707202,1.33784 z"
           id="path23416" />
        <path
           d="m 75.580123,178.70998 c -0.297297,0.21471 -0.677176,0.33033 -1.057056,0.33033 -0.693693,0 -1.090089,-0.41291 -1.090089,-1.17267 v -3.61712 h 2.196695 v -1.98198 h -2.196695 v -2.16366 h -2.576574 v 7.79579 c 0,2.11411 1.205704,3.18768 3.319817,3.18768 0.776275,0 1.552551,-0.18168 2.081079,-0.56156 z"
           id="path23418" />
        <path
           d="m 83.871415,173.01179 c -0.644144,-0.72673 -1.569068,-1.07358 -2.659157,-1.07358 -2.510508,0 -4.442939,1.78379 -4.442939,4.57507 0,2.79129 1.932431,4.57507 4.442939,4.57507 1.189188,0 2.130629,-0.37987 2.774772,-1.15615 v 1.02402 h 2.460959 v -8.88587 h -2.576574 z m -2.213212,5.96245 c -1.288287,0 -2.279277,-0.92492 -2.279277,-2.46096 0,-1.53603 0.99099,-2.46095 2.279277,-2.46095 1.271771,0 2.262761,0.92492 2.262761,2.46095 0,1.53604 -0.99099,2.46096 -2.262761,2.46096 z"
           id="path23420" />
        <path
           d="m 93.500542,178.70998 c -0.297297,0.21471 -0.677177,0.33033 -1.057056,0.33033 -0.693693,0 -1.090089,-0.41291 -1.090089,-1.17267 v -3.61712 h 2.196694 v -1.98198 h -2.196694 v -2.16366 h -2.576574 v 7.79579 c 0,2.11411 1.205704,3.18768 3.319816,3.18768 0.776276,0 1.552551,-0.18168 2.081079,-0.56156 z"
           id="path23422" />
        <path
           d="m 96.919469,170.83161 c 0.957957,0 1.6021,-0.62763 1.6021,-1.48649 0,-0.79279 -0.644143,-1.38738 -1.6021,-1.38738 -0.957957,0 -1.602101,0.62762 -1.602101,1.43693 0,0.80931 0.644144,1.43694 1.602101,1.43694 z m 1.288287,10.12461 v -8.88587 h -2.576574 v 8.88587 z"
           id="path23424" />
      </g>
      <g
         aria-label="Cart"
         transform="matrix(0.98034486,0,0,1.0200492,6.854531,-3.8834456)"
         id="text23412"
         style="font-size:16.5165px;font-family:genesa;-inkscape-font-specification:genesa;fill:#f2960c;stroke-width:2.41895;stroke-linejoin:round;stroke-miterlimit:2.5">
        <path
           d="m 106.02652,181.15442 c 2.01502,0 3.68318,-0.72673 4.77327,-2.06456 l -1.71771,-1.58559 c -0.77628,0.90841 -1.75075,1.37087 -2.90691,1.37087 -2.16366,0 -3.69969,-1.51951 -3.69969,-3.69969 0,-2.18018 1.53603,-3.6997 3.69969,-3.6997 1.15616,0 2.13063,0.46246 2.90691,1.35435 l 1.71771,-1.58558 c -1.09009,-1.32132 -2.75825,-2.04805 -4.75675,-2.04805 -3.6006,0 -6.276269,2.494 -6.276269,5.97898 0,3.48498 2.675669,5.97897 6.259749,5.97897 z"
           style="-inkscape-font-specification:'Montserrat Alternates Bold'"
           id="path23437" />
        <path
           d="m 118.54604,173.01179 c -0.64414,-0.72673 -1.56906,-1.07358 -2.65915,-1.07358 -2.51051,0 -4.44294,1.78379 -4.44294,4.57507 0,2.79129 1.93243,4.57507 4.44294,4.57507 1.18919,0 2.13063,-0.37987 2.77477,-1.15615 v 1.02402 h 2.46096 v -8.88587 h -2.57658 z m -2.21321,5.96245 c -1.28828,0 -2.27927,-0.92492 -2.27927,-2.46096 0,-1.53603 0.99099,-2.46095 2.27927,-2.46095 1.27177,0 2.26276,0.92492 2.26276,2.46095 0,1.53604 -0.99099,2.46096 -2.26276,2.46096 z"
           style="-inkscape-font-specification:'Montserrat Alternates Bold'"
           id="path23439" />
        <path
           d="M 125.96196,172.07035 H 123.501 v 8.88587 h 2.57658 v -4.19519 c 0,-1.7012 0.94144,-2.47747 2.36186,-2.47747 0.19819,0 0.36336,0.0165 0.57807,0.033 v -2.37838 c -1.37087,0 -2.42792,0.44595 -3.05555,1.30481 z"
           style="-inkscape-font-specification:'Montserrat Alternates Bold'"
           id="path23441" />
        <path
           d="m 135.22772,178.70998 c -0.2973,0.21471 -0.67718,0.33033 -1.05706,0.33033 -0.69369,0 -1.09009,-0.41291 -1.09009,-1.17267 v -3.61712 h 2.1967 v -1.98198 h -2.1967 v -2.16366 H 130.504 v 7.79579 c 0,2.11411 1.2057,3.18768 3.31982,3.18768 0.77627,0 1.55255,-0.18168 2.08107,-0.56156 z"
           style="-inkscape-font-specification:'Montserrat Alternates Bold'"
           id="path23443" />
      </g>
    </g>
    <g
       id="g24765">
      <path
         style="color:#000000;fill:#5a25c3;stroke-miterlimit:2.5;-inkscape-stroke:none"
         d="m 65.545937,116.09702 v 7 H 76.6475 l 13.974609,32.47851 h 28.480471 v -7 H 95.229531 L 81.256875,116.09702 Z"
         id="path23396" />
      <path
         style="color:#000000;fill:#5a25c3;stroke-miterlimit:2.5;-inkscape-stroke:none"
         d="m 83.264687,124.04233 v 7 H 118.9932 v -7 z"
         id="path23398" />
      <path
         style="color:#000000;fill:#5a25c3;stroke-miterlimit:2.5;-inkscape-stroke:none"
         d="m 65.592812,137.50913 v 4 H 79.96 v -4 z"
         id="path23400" />
      <path
         style="color:#000000;fill:#5a25c3;stroke-miterlimit:2.5;-inkscape-stroke:none"
         d="m 69.083047,147.52671 v 4 h 14.36914 v -4 z"
         id="path23402" />
      <g
         aria-label="&gt;"
         transform="matrix(0.84004382,0,0,1.1904141,6.854531,-3.8834456)"
         id="text23406"
         style="font-size:55.8435px;font-family:'Montserrat Alternates';-inkscape-font-specification:'Montserrat Alternates';fill:#f19c16;stroke-width:8.17866;stroke-linejoin:round;stroke-miterlimit:2.5">
        <path
           d="m 138.60944,113.50467 19.26601,7.20381 -19.26601,7.20381 v 5.80773 l 25.74385,-9.99599 v -6.0311 l -25.74385,-9.99598 z"
           style="-inkscape-font-specification:'Montserrat Alternates Semi-Bold'"
           id="path23484" />
      </g>
      <ellipse
         style="fill:#5c25c3;fill-opacity:1;stroke:none;stroke-width:6.65089;stroke-linejoin:miter;stroke-miterlimit:2.5;stroke-dasharray:none;stroke-opacity:1"
         id="ellipse23408"
         cx="96.624985"
         cy="161.48924"
         rx="4.1048689"
         ry="4.2397776" />
      <ellipse
         style="fill:#5c25c3;fill-opacity:1;stroke:none;stroke-width:6.65089;stroke-linejoin:miter;stroke-miterlimit:2.5;stroke-dasharray:none;stroke-opacity:1"
         id="ellipse23414"
         cx="114.26054"
         cy="161.48924"
         rx="4.1048689"
         ry="4.2397776" />
    </g>
  </g>
</svg>
